<svg id="visual" viewBox="0 0 960 400" width="960" height="400" xmlns="http://www.w3.org/2000/svg" xmlns:xlink="http://www.w3.org/1999/xlink" version="1.1"><rect x="0" y="0" width="960" height="400" fill="#000000"></rect><path d="M0 264L22.8 263.3C45.7 262.7 91.3 261.3 137 264.7C182.7 268 228.3 276 274 281.2C319.7 286.3 365.3 288.7 411.2 286.3C457 284 503 277 548.8 267.3C594.7 257.7 640.3 245.3 686 249.7C731.7 254 777.3 275 823 282.2C868.7 289.3 914.3 282.7 937.2 279.3L960 276L960 401L937.2 401C914.3 401 868.7 401 823 401C777.3 401 731.7 401 686 401C640.3 401 594.7 401 548.8 401C503 401 457 401 411.2 401C365.3 401 319.7 401 274 401C228.3 401 182.7 401 137 401C91.3 401 45.7 401 22.8 401L0 401Z" fill="#000000"></path><path d="M0 300L22.8 300.2C45.7 300.3 91.3 300.7 137 302.5C182.7 304.3 228.3 307.7 274 306.7C319.7 305.7 365.3 300.3 411.2 295.2C457 290 503 285 548.8 286C594.7 287 640.3 294 686 299.5C731.7 305 777.3 309 823 304.5C868.7 300 914.3 287 937.2 280.5L960 274L960 401L937.2 401C914.3 401 868.7 401 823 401C777.3 401 731.7 401 686 401C640.3 401 594.7 401 548.8 401C503 401 457 401 411.2 401C365.3 401 319.7 401 274 401C228.3 401 182.7 401 137 401C91.3 401 45.7 401 22.8 401L0 401Z" fill="#001c5b"></path><path d="M0 315L22.8 312C45.7 309 91.3 303 137 299.2C182.7 295.3 228.3 293.7 274 300.5C319.7 307.3 365.3 322.7 411.2 327.3C457 332 503 326 548.8 322.8C594.7 319.7 640.3 319.3 686 317.5C731.7 315.7 777.3 312.3 823 308.5C868.7 304.7 914.3 300.3 937.2 298.2L960 296L960 401L937.2 401C914.3 401 868.7 401 823 401C777.3 401 731.7 401 686 401C640.3 401 594.7 401 548.8 401C503 401 457 401 411.2 401C365.3 401 319.7 401 274 401C228.3 401 182.7 401 137 401C91.3 401 45.7 401 22.8 401L0 401Z" fill="#003377"></path><path d="M0 328L22.8 330.7C45.7 333.3 91.3 338.7 137 340.3C182.7 342 228.3 340 274 341.8C319.7 343.7 365.3 349.3 411.2 347.5C457 345.7 503 336.3 548.8 337.2C594.7 338 640.3 349 686 352.3C731.7 355.7 777.3 351.3 823 348.3C868.7 345.3 914.3 343.7 937.2 342.8L960 342L960 401L937.2 401C914.3 401 868.7 401 823 401C777.3 401 731.7 401 686 401C640.3 401 594.7 401 548.8 401C503 401 457 401 411.2 401C365.3 401 319.7 401 274 401C228.3 401 182.7 401 137 401C91.3 401 45.7 401 22.8 401L0 401Z" fill="#1c4b93"></path><path d="M0 373L22.8 372.8C45.7 372.7 91.3 372.3 137 368.7C182.7 365 228.3 358 274 358.7C319.7 359.3 365.3 367.7 411.2 368C457 368.3 503 360.7 548.8 359C594.7 357.3 640.3 361.7 686 366C731.7 370.3 777.3 374.7 823 373.7C868.7 372.7 914.3 366.3 937.2 363.2L960 360L960 401L937.2 401C914.3 401 868.7 401 823 401C777.3 401 731.7 401 686 401C640.3 401 594.7 401 548.8 401C503 401 457 401 411.2 401C365.3 401 319.7 401 274 401C228.3 401 182.7 401 137 401C91.3 401 45.7 401 22.8 401L0 401Z" fill="#3164af"></path></svg>